<mxfile host="app.diagrams.net" modified="2024-06-04T18:02:15.820Z" agent="Mozilla/5.0 (Windows NT 10.0; Win64; x64) AppleWebKit/537.36 (KHTML, like Gecko) Chrome/125.0.0.0 Safari/537.36" etag="cYw0MfqZVYfXS6EtehhD" version="24.4.10" type="github">
  <diagram name="Page-1" id="Gv5oOjXeplgvBmVMe_jC">
    <mxGraphModel dx="861" dy="444" grid="1" gridSize="10" guides="1" tooltips="1" connect="1" arrows="1" fold="1" page="1" pageScale="1" pageWidth="827" pageHeight="1169" math="0" shadow="0">
      <root>
        <mxCell id="0" />
        <mxCell id="1" parent="0" />
        <mxCell id="-EG4-MyawE5n80xoi_2L-303" value="T" style="text;html=1;align=center;verticalAlign=middle;whiteSpace=wrap;rounded=0;" vertex="1" parent="1">
          <mxGeometry x="64" y="200" width="60" height="30" as="geometry" />
        </mxCell>
        <mxCell id="-EG4-MyawE5n80xoi_2L-304" value="T&#39;" style="text;html=1;align=center;verticalAlign=middle;whiteSpace=wrap;rounded=0;" vertex="1" parent="1">
          <mxGeometry x="294" y="200" width="60" height="30" as="geometry" />
        </mxCell>
        <mxCell id="-EG4-MyawE5n80xoi_2L-329" value="" style="group" vertex="1" connectable="0" parent="1">
          <mxGeometry x="20" y="400" width="340" height="60" as="geometry" />
        </mxCell>
        <mxCell id="-EG4-MyawE5n80xoi_2L-327" value="" style="group" vertex="1" connectable="0" parent="-EG4-MyawE5n80xoi_2L-329">
          <mxGeometry x="290" y="10" width="50" height="30" as="geometry" />
        </mxCell>
        <mxCell id="-EG4-MyawE5n80xoi_2L-323" value="" style="endArrow=none;html=1;rounded=0;" edge="1" parent="-EG4-MyawE5n80xoi_2L-327">
          <mxGeometry width="50" height="50" relative="1" as="geometry">
            <mxPoint x="10" y="30" as="sourcePoint" />
            <mxPoint y="10" as="targetPoint" />
          </mxGeometry>
        </mxCell>
        <mxCell id="-EG4-MyawE5n80xoi_2L-324" value="" style="endArrow=none;html=1;rounded=0;" edge="1" parent="-EG4-MyawE5n80xoi_2L-327">
          <mxGeometry width="50" height="50" relative="1" as="geometry">
            <mxPoint x="10" y="30" as="sourcePoint" />
            <mxPoint x="20" as="targetPoint" />
          </mxGeometry>
        </mxCell>
        <mxCell id="-EG4-MyawE5n80xoi_2L-325" value="" style="endArrow=none;html=1;rounded=0;" edge="1" parent="-EG4-MyawE5n80xoi_2L-327">
          <mxGeometry width="50" height="50" relative="1" as="geometry">
            <mxPoint x="49" as="sourcePoint" />
            <mxPoint x="20" as="targetPoint" />
          </mxGeometry>
        </mxCell>
        <mxCell id="-EG4-MyawE5n80xoi_2L-326" value="&lt;font style=&quot;font-size: 16px;&quot;&gt;58&lt;/font&gt;" style="text;strokeColor=none;fillColor=none;align=left;verticalAlign=middle;spacingLeft=4;spacingRight=4;overflow=hidden;points=[[0,0.5],[1,0.5]];portConstraint=eastwest;rotatable=0;whiteSpace=wrap;html=1;" vertex="1" parent="-EG4-MyawE5n80xoi_2L-327">
          <mxGeometry x="16" width="34" height="30" as="geometry" />
        </mxCell>
        <mxCell id="-EG4-MyawE5n80xoi_2L-328" value="" style="group" vertex="1" connectable="0" parent="-EG4-MyawE5n80xoi_2L-329">
          <mxGeometry width="280" height="60" as="geometry" />
        </mxCell>
        <mxCell id="-EG4-MyawE5n80xoi_2L-319" style="edgeStyle=orthogonalEdgeStyle;rounded=0;orthogonalLoop=1;jettySize=auto;html=1;exitX=1;exitY=0.5;exitDx=0;exitDy=0;" edge="1" parent="-EG4-MyawE5n80xoi_2L-328" source="-EG4-MyawE5n80xoi_2L-311">
          <mxGeometry relative="1" as="geometry">
            <mxPoint x="280" y="29.939393939393995" as="targetPoint" />
          </mxGeometry>
        </mxCell>
        <mxCell id="-EG4-MyawE5n80xoi_2L-311" value="" style="whiteSpace=wrap;html=1;fillColor=default;" vertex="1" parent="-EG4-MyawE5n80xoi_2L-328">
          <mxGeometry width="240" height="60" as="geometry" />
        </mxCell>
        <mxCell id="-EG4-MyawE5n80xoi_2L-309" value="Classic BSD(T, T&#39;)&amp;nbsp;" style="text;html=1;align=center;verticalAlign=middle;whiteSpace=wrap;rounded=0;" vertex="1" parent="-EG4-MyawE5n80xoi_2L-328">
          <mxGeometry y="20" width="120" height="30" as="geometry" />
        </mxCell>
        <mxCell id="-EG4-MyawE5n80xoi_2L-312" value="" style="shape=image;verticalLabelPosition=bottom;labelBackgroundColor=default;verticalAlign=top;aspect=fixed;imageAspect=0;image=data:image/png,iVBORw0KGgoAAAANSUhEUgAAAHAAAAA8CAYAAAC+ej5cAAAAAXNSR0IArs4c6QAAAARnQU1BAACxjwv8YQUAAAAJcEhZcwAADsMAAA7DAcdvqGQAAAo5SURBVHhe7ZwJbA1PHMfHrSiijraOqLqiqKuESkppVUNTJCg9QgSpOKJURJxNXNXUFaGuNNQVN0GjqqE0qq0zqKKUhlYPFVpXzX++82Z5fee+q38v2U+y2Te/3ff2+M785je/nX11KIMo2C11xVrBTlEEtHMscqHJycmkvLycuLi4EB8fH2ElJD09nbx79440b96cBAYGCquCLbCoBUK8yMhI4uvrS8rKyoSVkIyMDDJ37lxSUlIiLAq2wiIBg4KCiJOTE/n9+zdJSkoSVkLc3d1JWFgYCQ8PFxYFW2GRgI8ePeLrrl27kvj4eFJRUcHLKSkpZOLEifyzgm2xSEC4yiVLlpCoqCiSn59PTp06xVtjcXEx8fb2Fnsp2BKLBEQQ4+/vT2bMmEHc3NzIxo0bSWpqKt/WsGFDvlawLWYL+Pr1a4IAFsI1atSIREdHk7y8PBISEkICAgLEXgq2xmwBpdYn4efnRxwdHcmXL1+UoUMtYpaAX79+JcePHyeenp7Cooo8g4ODyZAhQ4irq6uwKtgcDORNhfV5tE2bNnT69OnCouLVq1f05MmToqRQGyjJbDvHoihU4f9HEdDOUQS0cxQB7RwliPmH+fbtG9m2bRsfWyNhMnPmTLFFDQio8G8SEhJCGzduTB0cHNDI6Pz588WWv8hugTt37iQ3b94UJfmwEyBxcXGkdevWwqIgBzwQxzNVJEyQV540aRK5cOEC+fDhA2nXrp3YywQXeunSJTJ58mSehQErV64kLVu25J81efPmDUlLSyPPnj0jP378IFeuXCFjxowRW+WD3+nUqROpU6eOsKgoLCzkj6+QzkMeFk9FGjRoILbaFuSA169fT86ePcvLePKij4sXL/L7EBsbq3UN9+/f509uBgwYICzafP/+nV8fOHr0KJk2bZqWgCa50HPnztFmzZr9ac6/fv0SW3Rz+/Ztyg5GmR8XFnlUV1fTtWvX0mHDhlFWAYT1L5WVlfz4OI9Ro0ZRdiPEFtvD+iN65swZfuzAwEBh1QbXMHDgQL4fPmuSnZ1NO3bsSI8cOSIshlm9ejX18fGhP3/+FBYVJveB79+/p926deMntmjRImHVz/bt22lYWJgoySMmJob7fhxLH6wV8HPA79c2e/bs4cdevny5sGiTm5vL98FN10dqaipl7pFXCEOg0qAhXL9+XVj+YlYQU1BQQLt3706ZW6Cenp60pKREbNGmqqqKTpgwQZSMk5KSQuvWrUt3794tLLqJioqi9erV03lRtiYyMpIyl809jD6wDQKeP39eWLSB5wgICOD38uPHj8JaE9w/BDN79+4VlpqYHYXm5eXR8ePH85P08vKipaWlYos2Bw8eFJ8Mw8Jm2qVLF9q+fXvuJvXB+gFeI5s0aSIstQdcOuuXqZOTk7DohsUI1NXVlbceQ+zbt4/fw+joaGH5C47Fhg4GuyCLhhGfP3+m3t7e/ASwrqioEFvMgwU7/LdGjhwpLLpB/4H9goKC6I0bN+jYsWOpn5+fzptgbdLT0/mxp0yZwl2gv78/P/bixYtpUVGR2IvS0NBQunXrVlHSDyo+fg8Vory8XFgpffv2Le96mjZtyn9fWjSf9lgkIIAbCA4O5ifRv39/foHmEh4ezn9nxYoVwqIbuE/sB1fbu3dvmpCQQD08PLhLX7NmjdjLNmzZsuXPsXHdBw4coCzC5jaUJVDJ9LlFTRAM4fsIEiVu3bpFR4wYobXcvXtX7KHCYgEB/LTkTocOHSqspiNFuCdOnBAW3SDyxH6jR4+mbFjDbfgObH379uVlfbDxFX358qXs5dOnT+KbKhAZ4zjjxo374+bZ+JjbMOA2B0nAiIgIYZGPVQQEuFg2LrTIjeEisDx9+lRYtIEAjo6OfHn+/LmwUv4dfBeBjTqaYTcqGCI/zaV+/fo67er9D7wNKhmuk40HhZXSnJwcgwLqGgqps3DhQv59eDBTsZqA6BMQkcp1G7qQIyACIuyjORtAEhB9jwT6FwQSmZmZwqIfVAxj41pp/Ddr1ixhUSEJiD5KF6hUp0+fFiVtMBbE980R0CpPI1atWkXYDeTZGlunzKRpi2xowtcSmJMK1DMbyM5g3ipzq8KiHxb5EnajRUk3TAS+1jz2vXv3+Lpfv358rQmmW6q/O2JNLBKQVQDCOnVy7NgxnjaqjclMly9fJm3btiXDhw8XFhUPHjzgL9NIUxqRhnr48CGfIS6loyyhurqaPH78mDBXS1jgJKwqkBZr1aoVmT17trCoQBqRtVp+TtiuD+bm+bpnz558bRKqhmge8fHxfEyEkNcaILWEU7p69aqw1ATHQaSJFJU6T5484eF2XFycsFCalpZGmaCU3VRhsQwEajg3VnGERQUTj2eNdu3aJSx/wXk5OzvzoYYhpCBG/fzlYraA6NzRmb948UJYdIMggrkQUTKM1JnrG0YcPnyYb9+8ebOwUD52Gjx4MF2wYEGNnCPEZrVebwbDVBITE/mxd+zYISyqPhb9/rJly3TmO3FuyNjs379fWHQjCYh+2FTMEhDjLkRccpLUycnJfMAtB+QPkV3Rl3pDsIDjYuwHETds2MDzsnPmzNGK9A4dOsRbIKY6WoOMjAxeYREUsT6f52v79OnDB+v6gh9J9LKyMmHRBskPRNS+vr5GgyhdmCwgBpiIquQ0d2RJWrRoITuVBqZOncrnnBYXFwtLTVi/xm8e8oPI0LMAQmypCev7uHu3Jsi0IFsEt5yUlGQ04kZ2pnPnzgafliCzApFxr8zBJAHhlpCrXLp0qbDoBsnt2NhYLh5cyJ07d8QW40A4FxcXo8cwBgt0+JDC0vSeuaDP7NWrFx9a6KuMyOmij4T7NxfZAhYWFnLXhdqCFuLu7q53wUlhPyxubm7iF+SDrArcX1ZWlrCYDgREUlx9wF2bwHWz6JcP/BHoaILEPbwN8riGEvfGkC0gsuKSKFgQDWLRZ0OuEK4WeUtzgIgITnCh5oDHOfn5+aL0/4A+W19SAsEfnqfigYAlyJ5SgTEQxloSzD3yga/6u/EslOcLphngJRe8uatgW5RphXaOMrHXzlEEtHMUAe0cRUA7RxHQzpEtIGZDZ2ZmipJpKH+5ZTtkC4iHmREREaIkj4KCAhIaGirrgaqCecgSEPPys7OzSUJCgrDIA+814P0IzOdXsA2yBOzQoQNJTEwkVVVVvDxo0CAujubi7u7OMzYKtYesTAzexsHrZbm5ufzPfLAuKiri29TfCsLUBc23bSB2Tk4OfxNHwfrIEtDLy4uLgz9yBR4eHqSyspLb1P/sB6xbt4706NFDlBQBbY1RAfF6L9zjvHnzSExMDLeVlpbiKQb/rAneGcTEHwk/Pz9y7do1RUAbYbQPRKvDP/NmZWX9eZkRf/KK6YO6FnXxIJokHGZoKVgfowI6OztzV4nHQ5jOZwqYAoh5nGitmzZtElYFayKrD0R/5+DgoPWasDHw0/guQCVQb50K1kF5HmjnyM7EKPybKALaNYT8B2MA6Db+HvMOAAAAAElFTkSuQmCC;" vertex="1" parent="-EG4-MyawE5n80xoi_2L-328">
          <mxGeometry x="130" y="12.5" width="84" height="45" as="geometry" />
        </mxCell>
        <mxCell id="-EG4-MyawE5n80xoi_2L-320" value="" style="endArrow=none;html=1;rounded=0;" edge="1" parent="-EG4-MyawE5n80xoi_2L-328">
          <mxGeometry width="50" height="50" relative="1" as="geometry">
            <mxPoint x="127" y="50" as="sourcePoint" />
            <mxPoint x="117" y="30" as="targetPoint" />
          </mxGeometry>
        </mxCell>
        <mxCell id="-EG4-MyawE5n80xoi_2L-321" value="" style="endArrow=none;html=1;rounded=0;" edge="1" parent="-EG4-MyawE5n80xoi_2L-328">
          <mxGeometry width="50" height="50" relative="1" as="geometry">
            <mxPoint x="127" y="50" as="sourcePoint" />
            <mxPoint x="137" y="10" as="targetPoint" />
          </mxGeometry>
        </mxCell>
        <mxCell id="-EG4-MyawE5n80xoi_2L-322" value="" style="endArrow=none;html=1;rounded=0;" edge="1" parent="-EG4-MyawE5n80xoi_2L-328">
          <mxGeometry width="50" height="50" relative="1" as="geometry">
            <mxPoint x="227" y="10" as="sourcePoint" />
            <mxPoint x="137" y="10" as="targetPoint" />
          </mxGeometry>
        </mxCell>
        <mxCell id="-EG4-MyawE5n80xoi_2L-330" value="" style="group" vertex="1" connectable="0" parent="1">
          <mxGeometry x="20" y="240" width="519" height="116" as="geometry" />
        </mxCell>
        <mxCell id="-EG4-MyawE5n80xoi_2L-260" value="" style="shape=table;startSize=0;container=1;collapsible=0;childLayout=tableLayout;" vertex="1" parent="-EG4-MyawE5n80xoi_2L-330">
          <mxGeometry y="46" width="519" height="70" as="geometry" />
        </mxCell>
        <mxCell id="-EG4-MyawE5n80xoi_2L-261" value="" style="shape=tableRow;horizontal=0;startSize=0;swimlaneHead=0;swimlaneBody=0;strokeColor=inherit;top=0;left=0;bottom=0;right=0;collapsible=0;dropTarget=0;fillColor=none;points=[[0,0.5],[1,0.5]];portConstraint=eastwest;" vertex="1" parent="-EG4-MyawE5n80xoi_2L-260">
          <mxGeometry width="519" height="24" as="geometry" />
        </mxCell>
        <mxCell id="-EG4-MyawE5n80xoi_2L-262" value="R1 | R2" style="shape=partialRectangle;html=1;whiteSpace=wrap;connectable=0;strokeColor=inherit;overflow=hidden;fillColor=none;top=0;left=0;bottom=0;right=0;pointerEvents=1;" vertex="1" parent="-EG4-MyawE5n80xoi_2L-261">
          <mxGeometry width="86" height="24" as="geometry">
            <mxRectangle width="86" height="24" as="alternateBounds" />
          </mxGeometry>
        </mxCell>
        <mxCell id="-EG4-MyawE5n80xoi_2L-263" value="A | BCDE" style="shape=partialRectangle;html=1;whiteSpace=wrap;connectable=0;strokeColor=inherit;overflow=hidden;fillColor=none;top=0;left=0;bottom=0;right=0;pointerEvents=1;" vertex="1" parent="-EG4-MyawE5n80xoi_2L-261">
          <mxGeometry x="86" width="79" height="24" as="geometry">
            <mxRectangle width="79" height="24" as="alternateBounds" />
          </mxGeometry>
        </mxCell>
        <mxCell id="-EG4-MyawE5n80xoi_2L-300" value="B | ACDE" style="shape=partialRectangle;html=1;whiteSpace=wrap;connectable=0;strokeColor=inherit;overflow=hidden;fillColor=none;top=0;left=0;bottom=0;right=0;pointerEvents=1;" vertex="1" parent="-EG4-MyawE5n80xoi_2L-261">
          <mxGeometry x="165" width="80" height="24" as="geometry">
            <mxRectangle width="80" height="24" as="alternateBounds" />
          </mxGeometry>
        </mxCell>
        <mxCell id="-EG4-MyawE5n80xoi_2L-264" value="AB | CDE" style="shape=partialRectangle;html=1;whiteSpace=wrap;connectable=0;strokeColor=inherit;overflow=hidden;fillColor=none;top=0;left=0;bottom=0;right=0;pointerEvents=1;" vertex="1" parent="-EG4-MyawE5n80xoi_2L-261">
          <mxGeometry x="245" width="80" height="24" as="geometry">
            <mxRectangle width="80" height="24" as="alternateBounds" />
          </mxGeometry>
        </mxCell>
        <mxCell id="-EG4-MyawE5n80xoi_2L-267" value="CDE | AB" style="shape=partialRectangle;html=1;whiteSpace=wrap;connectable=0;strokeColor=inherit;overflow=hidden;fillColor=none;top=0;left=0;bottom=0;right=0;pointerEvents=1;" vertex="1" parent="-EG4-MyawE5n80xoi_2L-261">
          <mxGeometry x="325" width="80" height="24" as="geometry">
            <mxRectangle width="80" height="24" as="alternateBounds" />
          </mxGeometry>
        </mxCell>
        <mxCell id="-EG4-MyawE5n80xoi_2L-270" value="CE | ABD" style="shape=partialRectangle;html=1;whiteSpace=wrap;connectable=0;strokeColor=inherit;overflow=hidden;fillColor=none;top=0;left=0;bottom=0;right=0;pointerEvents=1;" vertex="1" parent="-EG4-MyawE5n80xoi_2L-261">
          <mxGeometry x="405" width="80" height="24" as="geometry">
            <mxRectangle width="80" height="24" as="alternateBounds" />
          </mxGeometry>
        </mxCell>
        <mxCell id="-EG4-MyawE5n80xoi_2L-271" value="..." style="shape=partialRectangle;html=1;whiteSpace=wrap;connectable=0;strokeColor=inherit;overflow=hidden;fillColor=none;top=0;left=0;bottom=0;right=0;pointerEvents=1;" vertex="1" parent="-EG4-MyawE5n80xoi_2L-261">
          <mxGeometry x="485" width="34" height="24" as="geometry">
            <mxRectangle width="34" height="24" as="alternateBounds" />
          </mxGeometry>
        </mxCell>
        <mxCell id="-EG4-MyawE5n80xoi_2L-274" value="" style="shape=tableRow;horizontal=0;startSize=0;swimlaneHead=0;swimlaneBody=0;strokeColor=inherit;top=0;left=0;bottom=0;right=0;collapsible=0;dropTarget=0;fillColor=none;points=[[0,0.5],[1,0.5]];portConstraint=eastwest;" vertex="1" parent="-EG4-MyawE5n80xoi_2L-260">
          <mxGeometry y="24" width="519" height="22" as="geometry" />
        </mxCell>
        <mxCell id="-EG4-MyawE5n80xoi_2L-275" value="b&lt;sub&gt;i&lt;/sub&gt;" style="shape=partialRectangle;html=1;whiteSpace=wrap;connectable=0;strokeColor=inherit;overflow=hidden;fillColor=none;top=0;left=0;bottom=0;right=0;pointerEvents=1;" vertex="1" parent="-EG4-MyawE5n80xoi_2L-274">
          <mxGeometry width="86" height="22" as="geometry">
            <mxRectangle width="86" height="22" as="alternateBounds" />
          </mxGeometry>
        </mxCell>
        <mxCell id="-EG4-MyawE5n80xoi_2L-276" value="3" style="shape=partialRectangle;html=1;whiteSpace=wrap;connectable=0;strokeColor=inherit;overflow=hidden;fillColor=none;top=0;left=0;bottom=0;right=0;pointerEvents=1;" vertex="1" parent="-EG4-MyawE5n80xoi_2L-274">
          <mxGeometry x="86" width="79" height="22" as="geometry">
            <mxRectangle width="79" height="22" as="alternateBounds" />
          </mxGeometry>
        </mxCell>
        <mxCell id="-EG4-MyawE5n80xoi_2L-301" value="2" style="shape=partialRectangle;html=1;whiteSpace=wrap;connectable=0;strokeColor=inherit;overflow=hidden;fillColor=none;top=0;left=0;bottom=0;right=0;pointerEvents=1;" vertex="1" parent="-EG4-MyawE5n80xoi_2L-274">
          <mxGeometry x="165" width="80" height="22" as="geometry">
            <mxRectangle width="80" height="22" as="alternateBounds" />
          </mxGeometry>
        </mxCell>
        <mxCell id="-EG4-MyawE5n80xoi_2L-277" value="&lt;font color=&quot;#cc0000&quot;&gt;1&lt;/font&gt;" style="shape=partialRectangle;html=1;whiteSpace=wrap;connectable=0;strokeColor=inherit;overflow=hidden;fillColor=none;top=0;left=0;bottom=0;right=0;pointerEvents=1;" vertex="1" parent="-EG4-MyawE5n80xoi_2L-274">
          <mxGeometry x="245" width="80" height="22" as="geometry">
            <mxRectangle width="80" height="22" as="alternateBounds" />
          </mxGeometry>
        </mxCell>
        <mxCell id="-EG4-MyawE5n80xoi_2L-280" value="2" style="shape=partialRectangle;html=1;whiteSpace=wrap;connectable=0;strokeColor=inherit;overflow=hidden;fillColor=none;top=0;left=0;bottom=0;right=0;pointerEvents=1;" vertex="1" parent="-EG4-MyawE5n80xoi_2L-274">
          <mxGeometry x="325" width="80" height="22" as="geometry">
            <mxRectangle width="80" height="22" as="alternateBounds" />
          </mxGeometry>
        </mxCell>
        <mxCell id="-EG4-MyawE5n80xoi_2L-283" value="0" style="shape=partialRectangle;html=1;whiteSpace=wrap;connectable=0;strokeColor=inherit;overflow=hidden;fillColor=none;top=0;left=0;bottom=0;right=0;pointerEvents=1;" vertex="1" parent="-EG4-MyawE5n80xoi_2L-274">
          <mxGeometry x="405" width="80" height="22" as="geometry">
            <mxRectangle width="80" height="22" as="alternateBounds" />
          </mxGeometry>
        </mxCell>
        <mxCell id="-EG4-MyawE5n80xoi_2L-284" value="..." style="shape=partialRectangle;html=1;whiteSpace=wrap;connectable=0;strokeColor=inherit;overflow=hidden;fillColor=none;top=0;left=0;bottom=0;right=0;pointerEvents=1;" vertex="1" parent="-EG4-MyawE5n80xoi_2L-274">
          <mxGeometry x="485" width="34" height="22" as="geometry">
            <mxRectangle width="34" height="22" as="alternateBounds" />
          </mxGeometry>
        </mxCell>
        <mxCell id="-EG4-MyawE5n80xoi_2L-287" value="" style="shape=tableRow;horizontal=0;startSize=0;swimlaneHead=0;swimlaneBody=0;strokeColor=inherit;top=0;left=0;bottom=0;right=0;collapsible=0;dropTarget=0;fillColor=none;points=[[0,0.5],[1,0.5]];portConstraint=eastwest;" vertex="1" parent="-EG4-MyawE5n80xoi_2L-260">
          <mxGeometry y="46" width="519" height="24" as="geometry" />
        </mxCell>
        <mxCell id="-EG4-MyawE5n80xoi_2L-288" value="b&lt;sub&gt;i&lt;/sub&gt;&#39;" style="shape=partialRectangle;html=1;whiteSpace=wrap;connectable=0;strokeColor=inherit;overflow=hidden;fillColor=none;top=0;left=0;bottom=0;right=0;pointerEvents=1;" vertex="1" parent="-EG4-MyawE5n80xoi_2L-287">
          <mxGeometry width="86" height="24" as="geometry">
            <mxRectangle width="86" height="24" as="alternateBounds" />
          </mxGeometry>
        </mxCell>
        <mxCell id="-EG4-MyawE5n80xoi_2L-289" value="6" style="shape=partialRectangle;html=1;whiteSpace=wrap;connectable=0;strokeColor=inherit;overflow=hidden;fillColor=none;top=0;left=0;bottom=0;right=0;pointerEvents=1;" vertex="1" parent="-EG4-MyawE5n80xoi_2L-287">
          <mxGeometry x="86" width="79" height="24" as="geometry">
            <mxRectangle width="79" height="24" as="alternateBounds" />
          </mxGeometry>
        </mxCell>
        <mxCell id="-EG4-MyawE5n80xoi_2L-302" value="4" style="shape=partialRectangle;html=1;whiteSpace=wrap;connectable=0;strokeColor=inherit;overflow=hidden;fillColor=none;top=0;left=0;bottom=0;right=0;pointerEvents=1;" vertex="1" parent="-EG4-MyawE5n80xoi_2L-287">
          <mxGeometry x="165" width="80" height="24" as="geometry">
            <mxRectangle width="80" height="24" as="alternateBounds" />
          </mxGeometry>
        </mxCell>
        <mxCell id="-EG4-MyawE5n80xoi_2L-290" value="&lt;font color=&quot;#cc0000&quot;&gt;2&lt;/font&gt;" style="shape=partialRectangle;html=1;whiteSpace=wrap;connectable=0;strokeColor=inherit;overflow=hidden;fillColor=none;top=0;left=0;bottom=0;right=0;pointerEvents=1;" vertex="1" parent="-EG4-MyawE5n80xoi_2L-287">
          <mxGeometry x="245" width="80" height="24" as="geometry">
            <mxRectangle width="80" height="24" as="alternateBounds" />
          </mxGeometry>
        </mxCell>
        <mxCell id="-EG4-MyawE5n80xoi_2L-293" value="4" style="shape=partialRectangle;html=1;whiteSpace=wrap;connectable=0;strokeColor=inherit;overflow=hidden;fillColor=none;top=0;left=0;bottom=0;right=0;pointerEvents=1;" vertex="1" parent="-EG4-MyawE5n80xoi_2L-287">
          <mxGeometry x="325" width="80" height="24" as="geometry">
            <mxRectangle width="80" height="24" as="alternateBounds" />
          </mxGeometry>
        </mxCell>
        <mxCell id="-EG4-MyawE5n80xoi_2L-296" value="3" style="shape=partialRectangle;html=1;whiteSpace=wrap;connectable=0;strokeColor=inherit;overflow=hidden;fillColor=none;top=0;left=0;bottom=0;right=0;pointerEvents=1;" vertex="1" parent="-EG4-MyawE5n80xoi_2L-287">
          <mxGeometry x="405" width="80" height="24" as="geometry">
            <mxRectangle width="80" height="24" as="alternateBounds" />
          </mxGeometry>
        </mxCell>
        <mxCell id="-EG4-MyawE5n80xoi_2L-297" value="..." style="shape=partialRectangle;html=1;whiteSpace=wrap;connectable=0;strokeColor=inherit;overflow=hidden;fillColor=none;top=0;left=0;bottom=0;right=0;pointerEvents=1;" vertex="1" parent="-EG4-MyawE5n80xoi_2L-287">
          <mxGeometry x="485" width="34" height="24" as="geometry">
            <mxRectangle width="34" height="24" as="alternateBounds" />
          </mxGeometry>
        </mxCell>
        <mxCell id="-EG4-MyawE5n80xoi_2L-307" value="" style="endArrow=classic;html=1;rounded=0;exitX=0.101;exitY=0.086;exitDx=0;exitDy=0;exitPerimeter=0;edgeStyle=orthogonalEdgeStyle;curved=1;" edge="1" parent="-EG4-MyawE5n80xoi_2L-330" source="-EG4-MyawE5n80xoi_2L-261">
          <mxGeometry width="50" height="50" relative="1" as="geometry">
            <mxPoint x="160" y="-14" as="sourcePoint" />
            <mxPoint x="100" y="16" as="targetPoint" />
            <Array as="points">
              <mxPoint x="50" y="48" />
              <mxPoint x="50" y="16" />
            </Array>
          </mxGeometry>
        </mxCell>
        <mxCell id="-EG4-MyawE5n80xoi_2L-308" value="with root on R2 side (specificity to handle rooted trees)" style="text;html=1;align=center;verticalAlign=middle;whiteSpace=wrap;rounded=0;" vertex="1" parent="-EG4-MyawE5n80xoi_2L-330">
          <mxGeometry x="104" width="296" height="30" as="geometry" />
        </mxCell>
        <mxCell id="-EG4-MyawE5n80xoi_2L-331" value="" style="group" vertex="1" connectable="0" parent="1">
          <mxGeometry x="254" y="20" width="160" height="180" as="geometry" />
        </mxCell>
        <mxCell id="-EG4-MyawE5n80xoi_2L-226" style="rounded=0;orthogonalLoop=1;jettySize=auto;html=1;exitX=0;exitY=1;exitDx=0;exitDy=0;entryX=0.5;entryY=0;entryDx=0;entryDy=0;" edge="1" parent="-EG4-MyawE5n80xoi_2L-331" source="-EG4-MyawE5n80xoi_2L-228" target="-EG4-MyawE5n80xoi_2L-231">
          <mxGeometry relative="1" as="geometry">
            <mxPoint x="40.000000000000114" y="50" as="targetPoint" />
          </mxGeometry>
        </mxCell>
        <mxCell id="-EG4-MyawE5n80xoi_2L-252" value="2" style="edgeLabel;html=1;align=center;verticalAlign=middle;resizable=0;points=[];fontSize=13;fontColor=#CC0000;fontStyle=1" vertex="1" connectable="0" parent="-EG4-MyawE5n80xoi_2L-226">
          <mxGeometry x="-0.1291" relative="1" as="geometry">
            <mxPoint as="offset" />
          </mxGeometry>
        </mxCell>
        <mxCell id="-EG4-MyawE5n80xoi_2L-227" style="rounded=0;orthogonalLoop=1;jettySize=auto;html=1;exitX=1;exitY=1;exitDx=0;exitDy=0;entryX=0.5;entryY=0;entryDx=0;entryDy=0;" edge="1" parent="-EG4-MyawE5n80xoi_2L-331" source="-EG4-MyawE5n80xoi_2L-228" target="-EG4-MyawE5n80xoi_2L-234">
          <mxGeometry relative="1" as="geometry" />
        </mxCell>
        <mxCell id="-EG4-MyawE5n80xoi_2L-255" value="4" style="edgeLabel;html=1;align=center;verticalAlign=middle;resizable=0;points=[];fontSize=13;" vertex="1" connectable="0" parent="-EG4-MyawE5n80xoi_2L-227">
          <mxGeometry x="-0.1732" relative="1" as="geometry">
            <mxPoint as="offset" />
          </mxGeometry>
        </mxCell>
        <mxCell id="-EG4-MyawE5n80xoi_2L-228" value="" style="ellipse;whiteSpace=wrap;html=1;aspect=fixed;fillColor=#f5f5f5;fontColor=#333333;strokeColor=#666666;" vertex="1" parent="-EG4-MyawE5n80xoi_2L-331">
          <mxGeometry x="60" width="20" height="20" as="geometry" />
        </mxCell>
        <mxCell id="-EG4-MyawE5n80xoi_2L-229" style="rounded=0;orthogonalLoop=1;jettySize=auto;html=1;exitX=0;exitY=1;exitDx=0;exitDy=0;entryX=0.5;entryY=0;entryDx=0;entryDy=0;" edge="1" parent="-EG4-MyawE5n80xoi_2L-331" source="-EG4-MyawE5n80xoi_2L-231" target="-EG4-MyawE5n80xoi_2L-235">
          <mxGeometry relative="1" as="geometry" />
        </mxCell>
        <mxCell id="-EG4-MyawE5n80xoi_2L-253" value="6" style="edgeLabel;html=1;align=center;verticalAlign=middle;resizable=0;points=[];fontSize=13;" vertex="1" connectable="0" parent="-EG4-MyawE5n80xoi_2L-229">
          <mxGeometry x="-0.318" y="1" relative="1" as="geometry">
            <mxPoint x="-1" as="offset" />
          </mxGeometry>
        </mxCell>
        <mxCell id="-EG4-MyawE5n80xoi_2L-230" style="rounded=0;orthogonalLoop=1;jettySize=auto;html=1;exitX=1;exitY=1;exitDx=0;exitDy=0;entryX=0.5;entryY=0;entryDx=0;entryDy=0;" edge="1" parent="-EG4-MyawE5n80xoi_2L-331" source="-EG4-MyawE5n80xoi_2L-231" target="-EG4-MyawE5n80xoi_2L-236">
          <mxGeometry relative="1" as="geometry" />
        </mxCell>
        <mxCell id="-EG4-MyawE5n80xoi_2L-254" value="4" style="edgeLabel;html=1;align=center;verticalAlign=middle;resizable=0;points=[];fontSize=13;" vertex="1" connectable="0" parent="-EG4-MyawE5n80xoi_2L-230">
          <mxGeometry x="-0.3885" relative="1" as="geometry">
            <mxPoint y="2" as="offset" />
          </mxGeometry>
        </mxCell>
        <mxCell id="-EG4-MyawE5n80xoi_2L-231" value="" style="ellipse;whiteSpace=wrap;html=1;aspect=fixed;fillColor=#f5f5f5;fontColor=#333333;strokeColor=#666666;" vertex="1" parent="-EG4-MyawE5n80xoi_2L-331">
          <mxGeometry x="20" y="60" width="20" height="20" as="geometry" />
        </mxCell>
        <mxCell id="-EG4-MyawE5n80xoi_2L-232" style="rounded=0;orthogonalLoop=1;jettySize=auto;html=1;exitX=0;exitY=1;exitDx=0;exitDy=0;entryX=0.5;entryY=0;entryDx=0;entryDy=0;" edge="1" parent="-EG4-MyawE5n80xoi_2L-331" source="-EG4-MyawE5n80xoi_2L-234" target="-EG4-MyawE5n80xoi_2L-237">
          <mxGeometry relative="1" as="geometry" />
        </mxCell>
        <mxCell id="-EG4-MyawE5n80xoi_2L-256" value="2" style="edgeLabel;html=1;align=center;verticalAlign=middle;resizable=0;points=[];fontSize=13;" vertex="1" connectable="0" parent="-EG4-MyawE5n80xoi_2L-232">
          <mxGeometry x="-0.2543" relative="1" as="geometry">
            <mxPoint as="offset" />
          </mxGeometry>
        </mxCell>
        <mxCell id="-EG4-MyawE5n80xoi_2L-233" style="rounded=0;orthogonalLoop=1;jettySize=auto;html=1;exitX=1;exitY=1;exitDx=0;exitDy=0;entryX=0.5;entryY=0;entryDx=0;entryDy=0;" edge="1" parent="-EG4-MyawE5n80xoi_2L-331" source="-EG4-MyawE5n80xoi_2L-234" target="-EG4-MyawE5n80xoi_2L-240">
          <mxGeometry relative="1" as="geometry" />
        </mxCell>
        <mxCell id="-EG4-MyawE5n80xoi_2L-257" value="5" style="edgeLabel;html=1;align=center;verticalAlign=middle;resizable=0;points=[];fontSize=13;" vertex="1" connectable="0" parent="-EG4-MyawE5n80xoi_2L-233">
          <mxGeometry x="-0.2831" y="-1" relative="1" as="geometry">
            <mxPoint as="offset" />
          </mxGeometry>
        </mxCell>
        <mxCell id="-EG4-MyawE5n80xoi_2L-234" value="" style="ellipse;whiteSpace=wrap;html=1;aspect=fixed;fillColor=#f5f5f5;fontColor=#333333;strokeColor=#666666;" vertex="1" parent="-EG4-MyawE5n80xoi_2L-331">
          <mxGeometry x="100" y="60" width="20" height="20" as="geometry" />
        </mxCell>
        <mxCell id="-EG4-MyawE5n80xoi_2L-235" value="A" style="ellipse;whiteSpace=wrap;html=1;aspect=fixed;" vertex="1" parent="-EG4-MyawE5n80xoi_2L-331">
          <mxGeometry y="110" width="20" height="20" as="geometry" />
        </mxCell>
        <mxCell id="-EG4-MyawE5n80xoi_2L-236" value="B" style="ellipse;whiteSpace=wrap;html=1;aspect=fixed;" vertex="1" parent="-EG4-MyawE5n80xoi_2L-331">
          <mxGeometry x="40" y="110" width="20" height="20" as="geometry" />
        </mxCell>
        <mxCell id="-EG4-MyawE5n80xoi_2L-237" value="D" style="ellipse;whiteSpace=wrap;html=1;aspect=fixed;" vertex="1" parent="-EG4-MyawE5n80xoi_2L-331">
          <mxGeometry x="80" y="110" width="20" height="20" as="geometry" />
        </mxCell>
        <mxCell id="-EG4-MyawE5n80xoi_2L-238" style="rounded=0;orthogonalLoop=1;jettySize=auto;html=1;exitX=0;exitY=1;exitDx=0;exitDy=0;entryX=0.5;entryY=0;entryDx=0;entryDy=0;" edge="1" parent="-EG4-MyawE5n80xoi_2L-331" source="-EG4-MyawE5n80xoi_2L-240" target="-EG4-MyawE5n80xoi_2L-241">
          <mxGeometry relative="1" as="geometry" />
        </mxCell>
        <mxCell id="-EG4-MyawE5n80xoi_2L-258" value="2" style="edgeLabel;html=1;align=center;verticalAlign=middle;resizable=0;points=[];fontSize=13;" vertex="1" connectable="0" parent="-EG4-MyawE5n80xoi_2L-238">
          <mxGeometry x="-0.3279" y="-1" relative="1" as="geometry">
            <mxPoint as="offset" />
          </mxGeometry>
        </mxCell>
        <mxCell id="-EG4-MyawE5n80xoi_2L-239" style="rounded=0;orthogonalLoop=1;jettySize=auto;html=1;exitX=1;exitY=1;exitDx=0;exitDy=0;entryX=0.5;entryY=0;entryDx=0;entryDy=0;" edge="1" parent="-EG4-MyawE5n80xoi_2L-331" source="-EG4-MyawE5n80xoi_2L-240" target="-EG4-MyawE5n80xoi_2L-242">
          <mxGeometry relative="1" as="geometry" />
        </mxCell>
        <mxCell id="-EG4-MyawE5n80xoi_2L-259" value="4" style="edgeLabel;html=1;align=center;verticalAlign=middle;resizable=0;points=[];fontSize=13;" vertex="1" connectable="0" parent="-EG4-MyawE5n80xoi_2L-239">
          <mxGeometry x="-0.4939" y="1" relative="1" as="geometry">
            <mxPoint x="-1" y="5" as="offset" />
          </mxGeometry>
        </mxCell>
        <mxCell id="-EG4-MyawE5n80xoi_2L-240" value="" style="ellipse;whiteSpace=wrap;html=1;aspect=fixed;fillColor=#f5f5f5;fontColor=#333333;strokeColor=#666666;" vertex="1" parent="-EG4-MyawE5n80xoi_2L-331">
          <mxGeometry x="120" y="110" width="20" height="20" as="geometry" />
        </mxCell>
        <mxCell id="-EG4-MyawE5n80xoi_2L-241" value="C" style="ellipse;whiteSpace=wrap;html=1;aspect=fixed;" vertex="1" parent="-EG4-MyawE5n80xoi_2L-331">
          <mxGeometry x="100" y="160" width="20" height="20" as="geometry" />
        </mxCell>
        <mxCell id="-EG4-MyawE5n80xoi_2L-242" value="E" style="ellipse;whiteSpace=wrap;html=1;aspect=fixed;" vertex="1" parent="-EG4-MyawE5n80xoi_2L-331">
          <mxGeometry x="140" y="160" width="20" height="20" as="geometry" />
        </mxCell>
        <mxCell id="-EG4-MyawE5n80xoi_2L-332" value="" style="group" vertex="1" connectable="0" parent="1">
          <mxGeometry x="24" y="20" width="160" height="180" as="geometry" />
        </mxCell>
        <mxCell id="-EG4-MyawE5n80xoi_2L-182" style="rounded=0;orthogonalLoop=1;jettySize=auto;html=1;exitX=0;exitY=1;exitDx=0;exitDy=0;entryX=0.5;entryY=0;entryDx=0;entryDy=0;" edge="1" parent="-EG4-MyawE5n80xoi_2L-332" source="-EG4-MyawE5n80xoi_2L-181" target="-EG4-MyawE5n80xoi_2L-183">
          <mxGeometry relative="1" as="geometry">
            <mxPoint x="40.000000000000114" y="50" as="targetPoint" />
          </mxGeometry>
        </mxCell>
        <mxCell id="-EG4-MyawE5n80xoi_2L-243" value="1" style="edgeLabel;html=1;align=center;verticalAlign=middle;resizable=0;points=[];fontSize=13;fontColor=#CC0000;fontStyle=1" vertex="1" connectable="0" parent="-EG4-MyawE5n80xoi_2L-182">
          <mxGeometry x="-0.0322" y="-2" relative="1" as="geometry">
            <mxPoint as="offset" />
          </mxGeometry>
        </mxCell>
        <mxCell id="-EG4-MyawE5n80xoi_2L-185" style="rounded=0;orthogonalLoop=1;jettySize=auto;html=1;exitX=1;exitY=1;exitDx=0;exitDy=0;entryX=0.5;entryY=0;entryDx=0;entryDy=0;" edge="1" parent="-EG4-MyawE5n80xoi_2L-332" source="-EG4-MyawE5n80xoi_2L-181" target="-EG4-MyawE5n80xoi_2L-184">
          <mxGeometry relative="1" as="geometry" />
        </mxCell>
        <mxCell id="-EG4-MyawE5n80xoi_2L-246" value="2" style="edgeLabel;html=1;align=center;verticalAlign=middle;resizable=0;points=[];fontSize=13;" vertex="1" connectable="0" parent="-EG4-MyawE5n80xoi_2L-185">
          <mxGeometry x="-0.2046" y="1" relative="1" as="geometry">
            <mxPoint as="offset" />
          </mxGeometry>
        </mxCell>
        <mxCell id="-EG4-MyawE5n80xoi_2L-181" value="" style="ellipse;whiteSpace=wrap;html=1;aspect=fixed;fillColor=#f5f5f5;fontColor=#333333;strokeColor=#666666;" vertex="1" parent="-EG4-MyawE5n80xoi_2L-332">
          <mxGeometry x="60" width="20" height="20" as="geometry" />
        </mxCell>
        <mxCell id="-EG4-MyawE5n80xoi_2L-191" style="rounded=0;orthogonalLoop=1;jettySize=auto;html=1;exitX=0;exitY=1;exitDx=0;exitDy=0;entryX=0.5;entryY=0;entryDx=0;entryDy=0;" edge="1" parent="-EG4-MyawE5n80xoi_2L-332" source="-EG4-MyawE5n80xoi_2L-183" target="-EG4-MyawE5n80xoi_2L-186">
          <mxGeometry relative="1" as="geometry" />
        </mxCell>
        <mxCell id="-EG4-MyawE5n80xoi_2L-244" value="3" style="edgeLabel;html=1;align=center;verticalAlign=middle;resizable=0;points=[];fontSize=13;" vertex="1" connectable="0" parent="-EG4-MyawE5n80xoi_2L-191">
          <mxGeometry x="-0.1906" relative="1" as="geometry">
            <mxPoint as="offset" />
          </mxGeometry>
        </mxCell>
        <mxCell id="-EG4-MyawE5n80xoi_2L-193" style="rounded=0;orthogonalLoop=1;jettySize=auto;html=1;exitX=1;exitY=1;exitDx=0;exitDy=0;entryX=0.5;entryY=0;entryDx=0;entryDy=0;" edge="1" parent="-EG4-MyawE5n80xoi_2L-332" source="-EG4-MyawE5n80xoi_2L-183" target="-EG4-MyawE5n80xoi_2L-187">
          <mxGeometry relative="1" as="geometry" />
        </mxCell>
        <mxCell id="-EG4-MyawE5n80xoi_2L-245" value="2" style="edgeLabel;html=1;align=center;verticalAlign=middle;resizable=0;points=[];fontSize=13;" vertex="1" connectable="0" parent="-EG4-MyawE5n80xoi_2L-193">
          <mxGeometry x="-0.3068" y="1" relative="1" as="geometry">
            <mxPoint x="-1" y="2" as="offset" />
          </mxGeometry>
        </mxCell>
        <mxCell id="-EG4-MyawE5n80xoi_2L-183" value="" style="ellipse;whiteSpace=wrap;html=1;aspect=fixed;fillColor=#f5f5f5;fontColor=#333333;strokeColor=#666666;" vertex="1" parent="-EG4-MyawE5n80xoi_2L-332">
          <mxGeometry x="20" y="60" width="20" height="20" as="geometry" />
        </mxCell>
        <mxCell id="-EG4-MyawE5n80xoi_2L-194" style="rounded=0;orthogonalLoop=1;jettySize=auto;html=1;exitX=0;exitY=1;exitDx=0;exitDy=0;entryX=0.5;entryY=0;entryDx=0;entryDy=0;" edge="1" parent="-EG4-MyawE5n80xoi_2L-332" source="-EG4-MyawE5n80xoi_2L-184" target="-EG4-MyawE5n80xoi_2L-188">
          <mxGeometry relative="1" as="geometry" />
        </mxCell>
        <mxCell id="-EG4-MyawE5n80xoi_2L-247" value="1" style="edgeLabel;html=1;align=center;verticalAlign=middle;resizable=0;points=[];fontSize=13;" vertex="1" connectable="0" parent="-EG4-MyawE5n80xoi_2L-194">
          <mxGeometry x="-0.1906" relative="1" as="geometry">
            <mxPoint as="offset" />
          </mxGeometry>
        </mxCell>
        <mxCell id="-EG4-MyawE5n80xoi_2L-195" style="rounded=0;orthogonalLoop=1;jettySize=auto;html=1;exitX=1;exitY=1;exitDx=0;exitDy=0;entryX=0.5;entryY=0;entryDx=0;entryDy=0;" edge="1" parent="-EG4-MyawE5n80xoi_2L-332" source="-EG4-MyawE5n80xoi_2L-184" target="-EG4-MyawE5n80xoi_2L-189">
          <mxGeometry relative="1" as="geometry" />
        </mxCell>
        <mxCell id="-EG4-MyawE5n80xoi_2L-248" value="3" style="edgeLabel;html=1;align=center;verticalAlign=middle;resizable=0;points=[];fontSize=13;" vertex="1" connectable="0" parent="-EG4-MyawE5n80xoi_2L-195">
          <mxGeometry x="-0.2014" relative="1" as="geometry">
            <mxPoint as="offset" />
          </mxGeometry>
        </mxCell>
        <mxCell id="-EG4-MyawE5n80xoi_2L-184" value="" style="ellipse;whiteSpace=wrap;html=1;aspect=fixed;fillColor=#f5f5f5;fontColor=#333333;strokeColor=#666666;" vertex="1" parent="-EG4-MyawE5n80xoi_2L-332">
          <mxGeometry x="100" y="60" width="20" height="20" as="geometry" />
        </mxCell>
        <mxCell id="-EG4-MyawE5n80xoi_2L-186" value="A" style="ellipse;whiteSpace=wrap;html=1;aspect=fixed;" vertex="1" parent="-EG4-MyawE5n80xoi_2L-332">
          <mxGeometry y="110" width="20" height="20" as="geometry" />
        </mxCell>
        <mxCell id="-EG4-MyawE5n80xoi_2L-187" value="B" style="ellipse;whiteSpace=wrap;html=1;aspect=fixed;" vertex="1" parent="-EG4-MyawE5n80xoi_2L-332">
          <mxGeometry x="40" y="110" width="20" height="20" as="geometry" />
        </mxCell>
        <mxCell id="-EG4-MyawE5n80xoi_2L-188" value="C" style="ellipse;whiteSpace=wrap;html=1;aspect=fixed;" vertex="1" parent="-EG4-MyawE5n80xoi_2L-332">
          <mxGeometry x="80" y="110" width="20" height="20" as="geometry" />
        </mxCell>
        <mxCell id="-EG4-MyawE5n80xoi_2L-224" style="rounded=0;orthogonalLoop=1;jettySize=auto;html=1;exitX=0;exitY=1;exitDx=0;exitDy=0;entryX=0.5;entryY=0;entryDx=0;entryDy=0;" edge="1" parent="-EG4-MyawE5n80xoi_2L-332" source="-EG4-MyawE5n80xoi_2L-189" target="-EG4-MyawE5n80xoi_2L-222">
          <mxGeometry relative="1" as="geometry" />
        </mxCell>
        <mxCell id="-EG4-MyawE5n80xoi_2L-249" value="1" style="edgeLabel;html=1;align=center;verticalAlign=middle;resizable=0;points=[];fontSize=13;" vertex="1" connectable="0" parent="-EG4-MyawE5n80xoi_2L-224">
          <mxGeometry x="-0.1448" relative="1" as="geometry">
            <mxPoint as="offset" />
          </mxGeometry>
        </mxCell>
        <mxCell id="-EG4-MyawE5n80xoi_2L-225" style="rounded=0;orthogonalLoop=1;jettySize=auto;html=1;exitX=1;exitY=1;exitDx=0;exitDy=0;entryX=0.5;entryY=0;entryDx=0;entryDy=0;" edge="1" parent="-EG4-MyawE5n80xoi_2L-332" source="-EG4-MyawE5n80xoi_2L-189" target="-EG4-MyawE5n80xoi_2L-223">
          <mxGeometry relative="1" as="geometry" />
        </mxCell>
        <mxCell id="-EG4-MyawE5n80xoi_2L-250" value="2" style="edgeLabel;html=1;align=center;verticalAlign=middle;resizable=0;points=[];fontSize=13;" vertex="1" connectable="0" parent="-EG4-MyawE5n80xoi_2L-225">
          <mxGeometry x="-0.2112" y="2" relative="1" as="geometry">
            <mxPoint as="offset" />
          </mxGeometry>
        </mxCell>
        <mxCell id="-EG4-MyawE5n80xoi_2L-189" value="" style="ellipse;whiteSpace=wrap;html=1;aspect=fixed;fillColor=#f5f5f5;fontColor=#333333;strokeColor=#666666;" vertex="1" parent="-EG4-MyawE5n80xoi_2L-332">
          <mxGeometry x="120" y="110" width="20" height="20" as="geometry" />
        </mxCell>
        <mxCell id="-EG4-MyawE5n80xoi_2L-222" value="D" style="ellipse;whiteSpace=wrap;html=1;aspect=fixed;" vertex="1" parent="-EG4-MyawE5n80xoi_2L-332">
          <mxGeometry x="100" y="160" width="20" height="20" as="geometry" />
        </mxCell>
        <mxCell id="-EG4-MyawE5n80xoi_2L-223" value="E" style="ellipse;whiteSpace=wrap;html=1;aspect=fixed;" vertex="1" parent="-EG4-MyawE5n80xoi_2L-332">
          <mxGeometry x="140" y="160" width="20" height="20" as="geometry" />
        </mxCell>
      </root>
    </mxGraphModel>
  </diagram>
</mxfile>
